PathFileType	4	(X/Y/Z)	OpenSim_Sub06_EMGBaseline_Magnet.trc
DataRate	CameraRate	NumFrames	NumMarkers	Units	OrigDataRate	OrigDataStartFrame	OrigNumFrames
100	100	20	8	m	100	2068	8270
Frame#	Time	torso_imu_offset_imu	pelvis_imu_offset_imu	tibia_r_imu_offset_imu	femur_r_imu_offset_imu	tibia_l_imu_offset_imu	femur_l_imu_offset_imu	toes_r_imu_offset_imu	toes_l_imu_offset_imu
				X1	Y1	Z1	X2	Y2	Z2	X3	Y3	Z3	X4	Y4	Z4	X5	Y5	Z5	X6	Y6	Z6	X7	Y7	Z7	X8		Y8	Z8	

2068	20.67000000	-0.92518396	-0.16040458	0.04713848	-0.50526055	0.22840385	-0.73955914	-0.62598718	-0.44913834	-0.19658628	-0.83113895	-0.16423523	0.04955366	-0.57149172	0.57872610	0.11424211	-0.62799162	0.33497382	0.40431622	-0.60355509	-0.15287391	-0.47965393	-0.74401121	-0.05906822	-0.35495034
2069	20.68000000	-0.92112528	-0.16067174	0.04936066	-0.50560771	0.22066316	-0.74026694	-0.64156950	-0.43251066	-0.20189359	-0.83208438	-0.17168331	0.04916699	-0.56331766	0.58614678	0.11301006	-0.62593867	0.34138179	0.41360602	-0.59823966	-0.13887684	-0.48734237	-0.74218804	-0.05329166	-0.35256479
2070	20.69000000	-0.92134021	-0.16337840	0.05149028	-0.51250650	0.22894444	-0.73176017	-0.65194228	-0.41845056	-0.19542370	-0.82578648	-0.17390203	0.05275121	-0.56054142	0.58446144	0.11134614	-0.62441010	0.34855722	0.40849626	-0.59548569	-0.12899354	-0.49668385	-0.74470844	-0.05481681	-0.34984405
2071	20.70000000	-0.92314384	-0.16839723	0.04938791	-0.51375222	0.22195935	-0.73704046	-0.66107336	-0.40537874	-0.19923728	-0.82318033	-0.17975278	0.06416319	-0.55262311	0.59318779	0.11326863	-0.62376791	0.35864078	0.41085107	-0.58364446	-0.12219172	-0.51295064	-0.74693045	-0.04669211	-0.34605612
2072	20.71000000	-0.92388890	-0.15813875	0.04909841	-0.51163928	0.22068857	-0.73580022	-0.67142094	-0.38912742	-0.20306411	-0.81754959	-0.17767457	0.06876183	-0.55158188	0.59595036	0.11515054	-0.61574499	0.35342362	0.40566832	-0.58160446	-0.10780023	-0.51945565	-0.74967096	-0.05043023	-0.34772976
2073	20.72000000	-0.92795782	-0.16321913	0.04900472	-0.51160629	0.22255521	-0.73174615	-0.67387141	-0.38146962	-0.19673289	-0.81942377	-0.18452338	0.08037972	-0.53410759	0.60874146	0.11659099	-0.61982400	0.35490295	0.40444425	-0.57172023	-0.10036825	-0.53391983	-0.75632345	-0.03735050	-0.34154051
2074	20.73000000	-0.92473452	-0.16250876	0.04639512	-0.51225566	0.21758340	-0.73364509	-0.67978139	-0.37509124	-0.20000563	-0.81790058	-0.18521971	0.08488333	-0.53281415	0.60840618	0.11614238	-0.61111221	0.36558019	0.40830487	-0.57240694	-0.10047621	-0.53485412	-0.75357850	-0.03778811	-0.34313816
2075	20.74000000	-0.91950613	-0.16250976	0.04567916	-0.51778547	0.21145433	-0.72891097	-0.67791036	-0.37167807	-0.20440734	-0.82361696	-0.17981941	0.09083003	-0.52555030	0.61824083	0.11075572	-0.61430984	0.36763280	0.40365798	-0.57192388	-0.10678682	-0.53047783	-0.75473176	-0.03321003	-0.33188959
2076	20.75000000	-0.92835042	-0.16044660	0.05025873	-0.51325235	0.21011739	-0.73153638	-0.67898783	-0.37622919	-0.20944141	-0.81240760	-0.18358458	0.08932691	-0.51468014	0.62880267	0.10572677	-0.61590359	0.37384529	0.40621373	-0.57383339	-0.14123736	-0.52028103	-0.76129503	-0.02870422	-0.32968217
2077	20.76000000	-0.92726248	-0.16100172	0.03586130	-0.51589594	0.20925535	-0.73183819	-0.66597716	-0.38028852	-0.22019117	-0.81170870	-0.17741893	0.09816011	-0.50580566	0.63617685	0.10079296	-0.61205354	0.37649548	0.40299484	-0.58428446	-0.16185854	-0.50152395	-0.76134911	-0.02512394	-0.32091804
2078	20.77000000	-0.92317061	-0.16492554	0.04482741	-0.51791002	0.19868367	-0.73528632	-0.66247349	-0.38440401	-0.22127202	-0.81373832	-0.18181797	0.09788771	-0.49557028	0.65363056	0.09835704	-0.61451306	0.38463276	0.39426318	-0.59422202	-0.15566104	-0.49438117	-0.76635428	-0.02632199	-0.31803147
2079	20.78000000	-0.92622227	-0.16212121	0.03286123	-0.52202298	0.19752534	-0.72816422	-0.65999676	-0.38878695	-0.22192109	-0.81536717	-0.17953771	0.10043477	-0.48590246	0.65931134	0.09922201	-0.61221155	0.38278347	0.39226376	-0.59251809	-0.18491114	-0.48990208	-0.77318449	-0.01339925	-0.30235066
2080	20.79000000	-0.93198864	-0.16119199	0.03406350	-0.52426774	0.19900201	-0.72831169	-0.65570437	-0.39495906	-0.23134022	-0.81335545	-0.18250664	0.10552522	-0.46592375	0.66670057	0.08998930	-0.61532059	0.39144832	0.38466416	-0.58591101	-0.18622355	-0.49047867	-0.77522055	-0.01154809	-0.29274023
2081	20.80000000	-0.92958812	-0.16682705	0.03627350	-0.52837165	0.19484435	-0.72644669	-0.65350273	-0.39946083	-0.23932995	-0.81317143	-0.18824892	0.11189930	-0.45589474	0.67976070	0.09169691	-0.62196119	0.38845242	0.37651924	-0.58037921	-0.18504357	-0.49673125	-0.77828210	-0.00243143	-0.27003365
2082	20.81000000	-0.92971033	-0.16039800	0.03553184	-0.52767217	0.19505468	-0.73027954	-0.64857068	-0.41281727	-0.23543781	-0.81353165	-0.18797661	0.10969439	-0.44444320	0.68859673	0.08904968	-0.62589429	0.38854910	0.37608916	-0.58009173	-0.19332419	-0.49599223	-0.78772579	0.00621906	-0.25456257
2083	20.82000000	-0.92806988	-0.16266954	0.03127444	-0.52388666	0.19535129	-0.72426263	-0.63860321	-0.43197519	-0.22294413	-0.81500657	-0.18777043	0.10830323	-0.42577948	0.70228858	0.09230010	-0.62825388	0.38353784	0.36770851	-0.57845272	-0.19153615	-0.49148735	-0.79465139	0.01765453	-0.22841386
2084	20.83000000	-0.93152266	-0.16049646	0.03153617	-0.52627843	0.20238881	-0.73355268	-0.62139715	-0.45014791	-0.20920235	-0.80899374	-0.18595423	0.09829568	-0.40248249	0.71262393	0.08712579	-0.63713426	0.37448272	0.36991499	-0.58520511	-0.18041049	-0.48773119	-0.80190982	0.03211818	-0.19512392
2085	20.84000000	-0.92569934	-0.16323635	0.02862094	-0.52386229	0.21290948	-0.72622125	-0.61618570	-0.46558846	-0.19458380	-0.81364961	-0.18767177	0.11275953	-0.39161799	0.71945608	0.09157201	-0.64247076	0.36326411	0.36297334	-0.58681903	-0.18503592	-0.48606377	-0.80647538	0.03878537	-0.16793769
2086	20.85000000	-0.93162967	-0.16655130	0.02293771	-0.52049522	0.21823218	-0.72753784	-0.61625210	-0.49049945	-0.17390860	-0.81309545	-0.18158226	0.11109121	-0.37116986	0.73037818	0.09043775	-0.64806955	0.35028387	0.35830321	-0.58903264	-0.18238489	-0.48593928	-0.80911160	0.05673754	-0.12893968
2087	20.86000000	-0.92507401	-0.16088477	0.02746270	-0.52427105	0.21618937	-0.73191480	-0.60126149	-0.50177708	-0.15981138	-0.80881520	-0.18436015	0.10957059	-0.35125601	0.73673760	0.08676434	-0.66967225	0.33655704	0.35012929	-0.58864885	-0.18012843	-0.48376573	-0.81203988	0.07425908	-0.08562218
